<svg xmlns="http://www.w3.org/2000/svg" width="24" height="24">
  <path fill="#1F1F1F"
    d="M12 16.5c1.25 0 2.313-.438 3.188-1.313.874-.874 1.312-1.937 1.312-3.187 0-1.25-.438-2.313-1.313-3.188C14.313 7.939 13.25 7.5 12 7.5c-1.25 0-2.313.438-3.188 1.313C7.939 9.687 7.5 10.75 7.5 12c0 1.25.438 2.313 1.313 3.188.874.874 1.937 1.312 3.187 1.312Zm0-3.5a.968.968 0 0 1-.713-.287A.968.968 0 0 1 11 12c0-.283.096-.52.287-.713A.968.968 0 0 1 12 11c.283 0 .52.096.713.287.191.192.287.43.287.713s-.096.52-.287.713A.968.968 0 0 1 12 13Zm0 9a9.738 9.738 0 0 1-3.9-.788 10.099 10.099 0 0 1-3.175-2.137c-.9-.9-1.612-1.958-2.137-3.175A9.738 9.738 0 0 1 2 12c0-1.383.263-2.683.788-3.9a10.099 10.099 0 0 1 2.137-3.175c.9-.9 1.958-1.612 3.175-2.137A9.738 9.738 0 0 1 12 2c1.383 0 2.683.263 3.9.788a10.099 10.099 0 0 1 3.175 2.137c.9.9 1.613 1.958 2.137 3.175A9.738 9.738 0 0 1 22 12a9.738 9.738 0 0 1-.788 3.9 10.099 10.099 0 0 1-2.137 3.175c-.9.9-1.958 1.613-3.175 2.137A9.738 9.738 0 0 1 12 22Z" />
</svg>