<svg xmlns="http://www.w3.org/2000/svg" width="24" height="24">
  <g fill="#1F1F1F">
    <path
      d="M13.175 2c.45 0 .837.15 1.162.45.325.3.521.667.588 1.1l.225 1.65c.217.083.42.183.612.3.192.117.38.242.563.375l1.55-.65c.417-.183.833-.2 1.25-.05.417.15.742.417.975.8l1.175 2.05c.233.383.3.792.2 1.225-.1.433-.325.792-.675 1.075l-1.325 1c.017.117.025.23.025.338v.526a6.01 6.01 0 0 0-3.99.35c.027-.174.04-.354.04-.539 0-.967-.342-1.792-1.025-2.475A3.372 3.372 0 0 0 12.05 8.5c-.983 0-1.813.342-2.488 1.025A3.393 3.393 0 0 0 8.55 12c0 .967.337 1.792 1.012 2.475.676.683 1.505 1.025 2.488 1.025.175 0 .345-.011.51-.033A5.97 5.97 0 0 0 12 18c0 1.523.568 2.914 1.503 3.972a1.867 1.867 0 0 1-.328.028h-2.35c-.45 0-.837-.15-1.162-.45-.325-.3-.521-.667-.588-1.1L8.85 18.8a3.795 3.795 0 0 1-.612-.3 8.243 8.243 0 0 1-.563-.375l-1.55.65c-.417.183-.833.2-1.25.05a1.843 1.843 0 0 1-.975-.8l-1.175-2.05a1.587 1.587 0 0 1-.2-1.225c.1-.433.325-.792.675-1.075l1.325-1a2.387 2.387 0 0 1-.025-.338v-.675c0-.108.008-.22.025-.337l-1.325-1a1.897 1.897 0 0 1-.675-1.075c-.1-.433-.033-.842.2-1.225L3.9 5.975c.233-.383.558-.65.975-.8.417-.15.833-.133 1.25.05l1.55.65c.183-.133.375-.258.575-.375.2-.117.4-.217.6-.3l.225-1.65c.067-.433.263-.8.588-1.1.325-.3.712-.45 1.162-.45h2.35Z" />
    <path
      d="M18 21c.833 0 1.542-.292 2.125-.875A2.893 2.893 0 0 0 21 18c0-.833-.292-1.542-.875-2.125A2.893 2.893 0 0 0 18 15c-.833 0-1.542.292-2.125.875A2.893 2.893 0 0 0 15 18c0 .833.292 1.542.875 2.125A2.893 2.893 0 0 0 18 21Zm0-2a.968.968 0 0 1-.712-.288A.968.968 0 0 1 17 18c0-.283.096-.52.288-.712A.968.968 0 0 1 18 17c.283 0 .52.096.712.288.192.191.288.429.288.712s-.096.52-.288.712A.968.968 0 0 1 18 19Zm0 4a4.869 4.869 0 0 1-1.95-.394 5.05 5.05 0 0 1-1.588-1.069 5.05 5.05 0 0 1-1.068-1.587A4.869 4.869 0 0 1 13 18c0-.692.131-1.342.394-1.95a5.05 5.05 0 0 1 1.069-1.588c.45-.45.979-.806 1.587-1.068A4.869 4.869 0 0 1 18 13c.692 0 1.342.131 1.95.394a5.05 5.05 0 0 1 1.588 1.069c.45.45.806.979 1.068 1.587.263.608.394 1.258.394 1.95s-.131 1.342-.394 1.95a5.05 5.05 0 0 1-1.069 1.588c-.45.45-.979.806-1.587 1.068A4.869 4.869 0 0 1 18 23Z" />
  </g>
</svg>