<svg xmlns="http://www.w3.org/2000/svg" width="24" height="24">
  <g fill="#1F1F1F">
    <path
      d="M19 3c.283 0 .52.096.712.288.192.191.288.429.288.712v8.342a6 6 0 0 0-6.522 9.603A1.998 1.998 0 0 1 13 22h-2c-.55 0-1.02-.196-1.412-.587A1.926 1.926 0 0 1 9 20v-4H6c-.55 0-1.02-.196-1.412-.588A1.926 1.926 0 0 1 4 14V7c0-1.1.392-2.042 1.175-2.825C5.958 3.392 6.9 3 8 3h11ZM6 10h12V5h-1v3c0 .283-.096.52-.288.713A.968.968 0 0 1 16 9a.968.968 0 0 1-.713-.287A.968.968 0 0 1 15 8V5h-1v1c0 .283-.096.52-.287.713A.968.968 0 0 1 13 7a.968.968 0 0 1-.713-.287A.968.968 0 0 1 12 6V5H8c-.55 0-1.02.196-1.412.588A1.926 1.926 0 0 0 6 7v3Z" />
    <path
      d="M18 21c.833 0 1.542-.292 2.125-.875A2.893 2.893 0 0 0 21 18c0-.833-.292-1.542-.875-2.125A2.893 2.893 0 0 0 18 15c-.833 0-1.542.292-2.125.875A2.893 2.893 0 0 0 15 18c0 .833.292 1.542.875 2.125A2.893 2.893 0 0 0 18 21Zm0-2a.968.968 0 0 1-.712-.288A.968.968 0 0 1 17 18c0-.283.096-.52.288-.712A.968.968 0 0 1 18 17c.283 0 .52.096.712.288.192.191.288.429.288.712s-.096.52-.288.712A.968.968 0 0 1 18 19Zm0 4a4.869 4.869 0 0 1-1.95-.394 5.05 5.05 0 0 1-1.588-1.069 5.05 5.05 0 0 1-1.068-1.587A4.869 4.869 0 0 1 13 18c0-.692.131-1.342.394-1.95a5.05 5.05 0 0 1 1.069-1.588c.45-.45.979-.806 1.587-1.068A4.869 4.869 0 0 1 18 13c.692 0 1.342.131 1.95.394a5.05 5.05 0 0 1 1.588 1.069c.45.45.806.979 1.068 1.587.263.608.394 1.258.394 1.95s-.131 1.342-.394 1.95a5.05 5.05 0 0 1-1.069 1.588c-.45.45-.979.806-1.587 1.068A4.869 4.869 0 0 1 18 23Z" />
  </g>
</svg>